{"title":"Dreamworks Dragons S03E03 WEBRiP x264-QCF","uid":12065517,"size":209653630,"categoryP":"video","categoryS":"tv_shows","magnet":"?xt=urn:btih:264b5a12dc0288cea5fed20c31d2cdb94ab8c0f2&amp;dn=Dreamworks+Dragons+S03E03+WEBRiP+x264-QCF&amp;tr=udp%3A%2F%2Ftracker.openbittorrent.com%3A80&amp;tr=udp%3A%2F%2Fopen.demonii.com%3A1337&amp;tr=udp%3A%2F%2Ftracker.coppersurfer.tk%3A6969&amp;tr=udp%3A%2F%2Fexodus.desync.com%3A6969","seeders":11,"leechers":1,"uploader":"Mulva1989","files":2,"time":1435377967,"description":"Dreamworks Dragons S03E03 WEBRiP x264-QCF\n\nThe Dragon Riders discover a lush island that turns out to be the home of the Deathsong, a massive dragon that threatens to trap them forever.\n\nScreens @ &lt;a href=&quot;\nhttps://yuq.me/users/50/321/CeshAuM7RV.jpg&quot; rel=&quot;nofollow&quot; target=&quot;_NEW&quot;&gt;\nhttps://yuq.me/users/50/321/CeshAuM7RV.jpg&lt;/a&gt; &lt;a href=&quot;\nhttps://yuq.me/users/50/321/yEVrZFNe9m.jpg&quot; rel=&quot;nofollow&quot; target=&quot;_NEW&quot;&gt;\nhttps://yuq.me/users/50/321/yEVrZFNe9m.jpg&lt;/a&gt;\n\nFormat : MPEG-4\nFormat profile : Base Media\nCodec ID : isom\nFile size : 200 MiB\nDuration : 22mn 42s\nOverall bit rate mode : Variable\nOverall bit rate : 1 231 Kbps\nEncoded date : UTC 2015-06-27 01:01:54\nTagged date : UTC 2015-06-27 01:01:54\n\nVideo\nID : 1\nFormat : AVC\nFormat/Info : Advanced Video Codec\nFormat profile : &lt;a class=&quot;__cf_email__&quot; href=&quot;/cdn-cgi/l/email-protection&quot; data-cfemail=&quot;86ceefe1eec6cab5a8b7&quot;&gt;[email&amp;#160;protected]&lt;/a&gt;&lt;script data-cfhash='f9e31' type=&quot;text/javascript&quot;&gt;\n/* &lt;![CDATA[ */!function(){try{var t=&quot;currentScript&quot;in document?document.currentScript:function(){for(var t=document.getElementsByTagName(&quot;script&quot;),e=t.length;e--;)if(t[e].getAttribute(&quot;data-cfhash&quot;))return t[e]}();if(t&amp;&amp;t.previousSibling){var e,r,n,i,c=t.previousSibling,a=c.getAttribute(&quot;data-cfemail&quot;);if(a){for(e=&quot;&quot;,r=parseInt(a.substr(0,2),16),n=2;a.length-n;n+=2)i=parseInt(a.substr(n,2),16)^r,e+=String.fromCharCode(i);e=document.createTextNode(e),c.parentNode.replaceChild(e,c)}t.parentNode.removeChild(t);}}catch(u){}}()/* ]]&gt; */&lt;/script&gt;\nFormat settings, CABAC : Yes\nFormat settings, ReFrames : 5 frames\nCodec ID : avc1\nCodec ID/Info : Advanced Video Coding\nDuration : 22mn 42s\nBit rate : 1 105 Kbps\nMaximum bit rate : 5 490 Kbps\nWidth : 720 pixels\nHeight : 404 pixels\nDisplay aspect ratio : 16:9\nFrame rate mode : Constant\nFrame rate : 23.976 fps\nColor space : YUV\nChroma subsampling : 4:2:0\nBit depth : 8 bits\nScan type : Progressive\nBits/(Pixel*Frame) : 0.158\nStream size : 179 MiB (90%)\nWriting library : x264 core 146 r2538 121396c\nEncoding settings : cabac=1 / ref=5 / deblock=1:0:0 / analyse=0x3:0x113 / me=umh / subme=8 / psy=1 / psy_rd=1.00:0.00 / mixed_ref=1 / me_range=16 / chroma_me=1 / trellis=1 / 8x8dct=1 / cqm=0 / deadzone=21,11 / fast_pskip=1 / chroma_qp_offset=-2 / threads=6 / lookahead_threads=1 / sliced_threads=0 / nr=0 / decimate=1 / interlaced=0 / bluray_compat=0 / constrained_intra=0 / bframes=3 / b_pyramid=2 / b_adapt=2 / b_bias=0 / direct=3 / weightb=1 / open_gop=0 / weightp=2 / keyint=250 / keyint_min=25 / scenecut=40 / intra_refresh=0 / rc_lookahead=50 / rc=crf / mbtree=1 / crf=20.0 / qcomp=0.60 / qpmin=0 / qpmax=69 / qpstep=4 / ip_ratio=1.40 / aq=1:1.00\nEncoded date : UTC 2015-06-27 01:01:54\nTagged date : UTC 2015-06-27 01:01:56\nMatrix coefficients : BT.709\nColor range : Limited\n\nAudio\nID : 2\nFormat : AAC\nFormat/Info : Advanced Audio Codec\nFormat profile : LC\nCodec ID : 40\nDuration : 22mn 41s\nBit rate mode : Variable\nBit rate : 123 Kbps\nMaximum bit rate : 144 Kbps\nChannel(s) : 2 channels\nChannel positions : Front: L R\nSampling rate : 48.0 KHz\nCompression mode : Lossy\nStream size : 19.9 MiB (10%)\nLanguage : English\nEncoded date : UTC 2015-06-27 00:49:54\nTagged date : UTC 2015-06-27 01:01:56","torrent":{"xt":"urn:btih:264b5a12dc0288cea5fed20c31d2cdb94ab8c0f2","amp;dn":"Dreamworks+Dragons+S03E03+WEBRiP+x264-QCF","amp;tr":["udp%3A%2F%2Ftracker.openbittorrent.com%3A80","udp%3A%2F%2Fopen.demonii.com%3A1337","udp%3A%2F%2Ftracker.coppersurfer.tk%3A6969","udp%3A%2F%2Fexodus.desync.com%3A6969"],"infoHash":"264b5a12dc0288cea5fed20c31d2cdb94ab8c0f2","infoHashBuffer":{"type":"Buffer","data":[38,75,90,18,220,2,136,206,165,254,210,12,49,210,205,185,74,184,192,242]},"announce":[],"urlList":[]}}